<svg width="24" height="23" viewBox="0 0 24 23" fill="none" xmlns="http://www.w3.org/2000/svg">
<path d="M11.9451 0.110352C5.47343 0.110352 0.225586 5.35727 0.225586 11.8299C0.225586 17.008 3.58358 21.4009 8.24014 22.9506C8.82582 23.059 9.04089 22.6963 9.04089 22.3868C9.04089 22.1074 9.02996 21.1841 9.02499 20.2048C5.76452 20.9138 5.07654 18.8221 5.07654 18.8221C4.54344 17.4674 3.77531 17.1073 3.77531 17.1073C2.71205 16.3799 3.85546 16.3948 3.85546 16.3948C5.03233 16.4775 5.65202 17.6025 5.65202 17.6025C6.69727 19.3942 8.39363 18.8762 9.0624 18.5768C9.16755 17.8193 9.47133 17.3024 9.80645 17.0097C7.20344 16.7133 4.46697 15.7084 4.46697 11.2178C4.46697 9.93837 4.92479 8.89285 5.67454 8.07214C5.55284 7.77692 5.15173 6.58497 5.78805 4.97068C5.78805 4.97068 6.77218 4.65569 9.01176 6.172C9.94653 5.91225 10.9491 5.7821 11.9451 5.77769C12.9411 5.7821 13.9444 5.91225 14.881 6.172C17.1179 4.65569 18.1007 4.97068 18.1007 4.97068C18.7386 6.58497 18.3373 7.77692 18.2156 8.07214C18.967 8.89285 19.4217 9.93828 19.4217 11.2178C19.4217 15.719 16.6801 16.7102 14.0704 17.0003C14.4908 17.364 14.8653 18.0773 14.8653 19.1706C14.8653 20.7387 14.8517 22.0007 14.8517 22.3868C14.8517 22.6986 15.0627 23.0641 15.6568 22.949C20.3108 21.3976 23.6645 17.0062 23.6645 11.8299C23.6645 5.35727 18.4174 0.110352 11.9451 0.110352Z" fill="white"/>
<path d="M4.61467 16.8042C4.58894 16.8624 4.49721 16.8798 4.41384 16.84C4.32882 16.8017 4.28102 16.7223 4.3086 16.6638C4.33388 16.6039 4.42561 16.5872 4.51044 16.6274C4.59565 16.6656 4.64418 16.7457 4.61467 16.8042ZM5.19116 17.3186C5.13528 17.3704 5.02599 17.3463 4.95181 17.2644C4.87516 17.1827 4.86082 17.0735 4.91753 17.0208C4.97516 16.9691 5.08114 16.9933 5.15798 17.0751C5.23463 17.1577 5.24952 17.2663 5.19107 17.3186M5.58667 17.9767C5.51479 18.0266 5.39732 17.9798 5.3248 17.8756C5.25302 17.7714 5.25302 17.6464 5.32636 17.5963C5.39916 17.5462 5.51479 17.5913 5.58832 17.6947C5.66001 17.8006 5.66001 17.9256 5.58657 17.9768M6.25543 18.7389C6.19119 18.8097 6.05442 18.7907 5.95423 18.694C5.85184 18.5996 5.82325 18.4655 5.88769 18.3946C5.95267 18.3236 6.09026 18.3436 6.19119 18.4394C6.29293 18.5338 6.324 18.6689 6.25553 18.7389M7.1198 18.9963C7.09158 19.088 6.95977 19.1297 6.82705 19.0908C6.69451 19.0506 6.60774 18.943 6.63449 18.8503C6.66206 18.7579 6.79442 18.7145 6.92815 18.7562C7.06051 18.7962 7.14746 18.9029 7.11989 18.9963M8.10364 19.1054C8.10695 19.2021 7.99436 19.2822 7.85502 19.284C7.71485 19.287 7.60152 19.2088 7.60005 19.1137C7.60005 19.0161 7.71007 18.9367 7.85015 18.9344C7.98949 18.9316 8.10364 19.0093 8.10364 19.1054ZM9.07003 19.0683C9.08676 19.1626 8.98988 19.2595 8.85155 19.2852C8.71552 19.3101 8.58959 19.2519 8.57222 19.1584C8.55531 19.0617 8.65403 18.9649 8.78978 18.9398C8.92839 18.9157 9.05238 18.9725 9.07003 19.0683Z" fill="white"/>
</svg>
